<svg width="433" height="374" viewBox="0 0 433 374" fill="none" xmlns="http://www.w3.org/2000/svg">
<circle cx="36" cy="32" r="32" fill="#3FFF68"/>
<path d="M82.0391 67.5504C96.4078 80.1128 93.8145 92.6669 90.7218 97.3736L119.842 85.1515L151.662 78.3043C138.983 70.6107 110.596 53.7058 98.4805 47.6349C86.3648 41.5641 67.4437 37.5898 59.2638 38.8537L59.2638 54.7976C60.8686 53.8142 67.6704 54.9879 82.0391 67.5504Z" fill="#3FFF68"/>
<path d="M12.6524 196.594C-1.05659 232.665 3.51236 276.25 12.6524 295.788C22.5542 313.073 30.9345 329.605 62.9237 347.641C111.235 374.879 249.391 372.157 327.984 365.677C404.255 359.387 428.524 327.558 428.524 302.553C428.524 287.197 433.581 149.27 410.731 115.456C399.044 98.1613 269.061 81.6416 211.936 74.8741C171.036 70.0287 133.759 74.8596 113.194 86.1267C91.679 97.9143 30.0077 150.927 12.6524 196.594Z" stroke="#3FFF68" stroke-width="8"/>
<ellipse cx="38" cy="6" rx="38" ry="6" transform="matrix(0.999826 0.0186788 -0.155081 0.987902 175.567 198)" fill="#3FFF68"/>
<ellipse cx="38" cy="6" rx="38" ry="6" transform="matrix(0.999826 0.0186788 -0.155081 0.987902 299.787 201.428)" fill="#3FFF68"/>
<path d="M317.182 262.5C323.5 264.5 319.87 271.427 317.182 275.875C314.493 280.323 310.788 284.235 306.288 287.378C301.788 290.522 296.581 292.833 290.98 294.176C285.379 295.518 279.493 295.865 273.675 295.194C267.858 294.524 262.222 292.85 257.106 290.272C251.991 287.694 247.495 284.265 243.89 280.187C240.284 276.109 237.639 271.466 236.112 266.532C234.586 261.598 234.846 259.498 241.5 259.5C241.5 259.5 260.061 262.939 277.5 264.5C294.94 266.061 317.182 262.5 317.182 262.5Z" fill="#3FFF68"/>
</svg>
